<svg
  height="48"
  title="Carro"
  viewBox="0 0 48 48"
  width="48"
  xmlns="http://www.w3.org/2000/svg"
>
	<filter id="a" color-interpolation-filters="sRGB" height="1.494121" width="1.311714" x="-.155857" y="-.24706">
		<feGaussianBlur stdDeviation="2.2698626" />
	</filter>
	<path d="m97.905241 19.666857a6.8609966 18.091485 73.774263 0 0 -24.00205 8.304396 6.8609966 18.091485 73.774263 0 0 -2.521136 4.493965l1.343316 9.250494 2.112082.0011 21.665212-9.243984h-.002a6.8609966 18.091485 73.774263 0 0 7.298945-4.50156 6.8609966 18.091485 73.774263 0 0 -5.894433-8.304396z" fill-opacity=".25" filter="url(#a)" transform="matrix(.72583874 0 0 .92154075 -29.870713 7.215898)" />
	<path d="m23.864366.00000005a16.948826 16.948826 0 0 0 -16.9478836 16.95009595 16.948826 16.948826 0 0 0 2.6973115 9.172629l12.9594951 18.881177h.0023a1.3189848 1.3189848 0 0 0 1.195852.766231 1.3189848 1.3189848 0 0 0 1.195852-.764016h.0023l13.136551-18.86789h-.0023a16.948826 16.948826 0 0 0 2.71065-9.188131 16.948826 16.948826 0 0 0 -16.950096-16.95009595z" fill="#f00" />
	<circle cx="23.865322" cy="16.949024" fill="#fff" r="13.002331" />
	<g stroke="#000" stroke-width=".5" transform="matrix(.45211641 0 0 .45211641 13.581417 -.064075)">
		<path d="m17.141577 25.266404c-1.038098.000978-2.217352.02067-3.568904.06295-.908457.147125-2.078081.392248-3.447627 1.841388l-2.2255885 2.509809c-.5324828.552747-.7744856 1.182562-2.6579309 1.376643l-2.4403713.324951c-.6143718.210076-1.1782513.514767-1.2155567 1.808059l.00185 2.325574c.029058.559028-.3519918.771688-.69989404 1.011884-1.17201066.764847-.8396061 1.958681-.75544117 3.563349l.1175748 1.675672c.0756854 1.196553.82634851 1.275335 1.33961201 1.308136l4.1141917.303657c2.306325-6.379393 9.4384471-3.855339 9.7448201.393459l14.807944.025c1.408094-6.084346 8.942979-5.245184 9.823512.0037l2.782912-.04444c1.23896.02347 1.788047-.599528 2.095053-1.449781l.407346-1.730293c.14483-.787755.216818-1.457855-.273107-2.586646-.450272-.95332-.854313-1.906432-1.356276-2.859752-.425714-.540033-.769129-1.091747-2.366308-1.465519l-4.979802-.989664c-1.943884-.257995-2.598025-.807029-4.0355-1.933041l-3.566127-2.764396c-1.136825-.827162-1.733922-1.69911-5.284385-2.3265-1.405096-.222307-3.247707-.387135-6.361999-.384201z" />
		<path d="m14.085609 44.474422a3.5255757 3.5255757 0 0 1 -3.525575 3.525576 3.5255757 3.5255757 0 0 1 -3.5255762-3.525576 3.5255757 3.5255757 0 0 1 3.5255762-3.525575 3.5255757 3.5255757 0 0 1 3.525575 3.525575z" />
		<path d="m38.674733 44.474422a3.5255757 3.5255757 0 0 1 -3.525573 3.525576 3.5255757 3.5255757 0 0 1 -3.525576-3.525576 3.5255757 3.5255757 0 0 1 3.525576-3.525575 3.5255757 3.5255757 0 0 1 3.525573 3.525575z" />
		<g fill="#fff">
			<path d="m19.988368 27.129085c6.151636.21104 6.175535 1.733605 10.214194 4.574308.639001.555363.08785 1.05908-.258294 1.040582l-9.917943-.529549c-.193512-.010342-.579157-.353536-.576765-.670269l.02962-3.90589c.0021-.282146.227029-.509182.509183-.509182z" />
			<path d="m15.951016 27.026323c.41565-.0016.876354.02038 1.392382.06573.381448 0 .688784.307336.688784.688784v3.620748c0 .381449-.307938.710213-.688784.688785l-6.653622-.374944c-.679821-.03005-.8434085-.642369-.467522-1.105388 2.111513-2.404766 2.819214-3.572545 5.728762-3.583716z" />
		</g>
	</g>
</svg>
