<svg
  height="48"
  title="Moto"
  viewBox="0 0 48 48"
  width="48"
  xmlns="http://www.w3.org/2000/svg"
>
	<filter id="a" color-interpolation-filters="sRGB" height="1.494121" width="1.311714" x="-.155857" y="-.24706">
		<feGaussianBlur stdDeviation="2.2698626" />
	</filter>
	<path d="m97.905241 19.666857a6.8609966 18.091485 73.774263 0 0 -24.00205 8.304396 6.8609966 18.091485 73.774263 0 0 -2.521136 4.493965l1.343316 9.250494 2.112082.0011 21.665212-9.243984h-.002a6.8609966 18.091485 73.774263 0 0 7.298945-4.50156 6.8609966 18.091485 73.774263 0 0 -5.894433-8.304396z" fill-opacity=".25" filter="url(#a)" transform="matrix(.72583874 0 0 .92154075 -29.870713 7.215898)" />
	<path d="m23.864366.00000005a16.948826 16.948826 0 0 0 -16.9478836 16.95009595 16.948826 16.948826 0 0 0 2.6973115 9.172629l12.9594951 18.881177h.0023a1.3189848 1.3189848 0 0 0 1.195852.766231 1.3189848 1.3189848 0 0 0 1.195852-.764016h.0023l13.136551-18.86789h-.0023a16.948826 16.948826 0 0 0 2.71065-9.188131 16.948826 16.948826 0 0 0 -16.950096-16.95009595z" fill="#f00" />
	<circle cx="23.865322" cy="16.949024" fill="#fff" r="13.002331" />
	<g transform="matrix(.32256647 0 0 .32256647 8.382132 6.649611)">
		<path d="m35.192227 38.970551a9.0294477 9.0294477 0 0 1 -9.029447 9.029447 9.0294477 9.0294477 0 0 1 -9.029449-9.029447 9.0294477 9.0294477 0 0 1 9.029449-9.029448 9.0294477 9.0294477 0 0 1 9.029447 9.029448z" stroke-width="9.71184" />
		<path d="m78.866669 38.970551a9.0294477 9.0294477 0 0 1 -9.029447 9.029447 9.0294477 9.0294477 0 0 1 -9.029449-9.029447 9.0294477 9.0294477 0 0 1 9.029449-9.029448 9.0294477 9.0294477 0 0 1 9.029447 9.029448z" stroke-width="9.71184" />
		<path d="m21.113416 25.819236-.0197-.981481c-.05663-.733213.450629-.91132 1.00435-1.043686l10.028929-2.406561c.01487 1.296703.335469 2.29631 2.243887 3.42783l6.828687 3.724044-2.423584 4.491982c-1.656137 4.148856 4.099119 7.07503 6.391979 3.326466l4.291725-7.884653c.486278-1.582169.289485-3.030177-1.04804-4.254137l-2.000526-1.105247 4.460337-.07743c1.288264.138054 1.181061 1.766498 1.195953 2.639885l3.597151.02924c1.921146-.361626 1.721703-1.559319 1.425179-2.795287-.597732-1.987469-1.247552-3.77333-1.779574-6.015125-.194116-1.080001-.424532-1.995516 1.500283-1.971812 5.867753.592728 11.771835 7.897985 12.994078 10.418163.399024 1.430431.196099 2.424819-1.216975 2.542592-7.888835 1.686117-9.016292 6.2289-9.72433 10.948887-.230758 1.333486-.166694 2.809916-3.155879 2.805984l-18.846983-.187772c1.72965-10.197147-6.754303-13.529376-10.274725-13.516826-2.542895-.459181-5.522832-.482792-5.472222-2.115056z" />
		<path d="m34.815012 17.887999 12.302159 6.838023c1.439188.707876 2.027513 1.903769 1.044187 4.001089l-3.729302 6.785078c-1.367571 3.017698-6.036874 1.077806-4.604775-2.113496l2.888521-5.2103-7.202697-4.200749c-1.389987-.745738-2.726303-1.53394-2.04538-3.918128z" />
		<path d="m35.502031 17.014303 6.741316 3.858389 5.835114-5.934958 6.626108 3.829066c-.400155-1.693612-1.104639-3.493409.321871-4.549667l-9.076756-5.5025548c-.746607-.492023-1.565775-.6852653-2.696081.4026269z" />
		<path d="m57.104342 5.7093535c-.039894-1.6460425-.148547-3.2911152-2.410978-4.90581276-1.324738-.7110609-4.36157-1.7926929-6.863983 1.14258426-1.478352 2.3781429-1.601676 5.0539027 1.174626 7.0463212.971712.7369252 1.472047.9875209 3.068759 1.7354428 1.240501.428661 1.738137.105374 2.226628-.227171.636961-.437043 1.033639-1.202896 1.459613-1.9286601l-3.137143-1.1265106c-.570535-.2496763-.992897-.7020424-.762409-1.4168279l.452193-1.1615172c.243923-.5007422.80241-.6716556 1.281485-.4676866z" />
	</g>
</svg>
