<svg height="48" title="Moto" viewBox="0 0 48 48" width="48" xmlns="http://www.w3.org/2000/svg" xmlns:xlink="http://www.w3.org/1999/xlink">
	<g stroke="#000" transform="matrix(.08886318 0 0 .08886318 35.456971 20.790788)">
		<path d="m-122.19389 2.8444275 21.32006-.2293534c24.625763-32.7094361 59.170743-17.8809491 67.634535-3.19765504 0 0 2.464961 1.03139059 7.523166-5.35995036l9.205396-33.2620317c4.39028-14.437598-5.421616-16.207567-19.63652-15.711951l-.122967-37.446639c-.07271-4.475711-.44748-10.821887 10.601095-10.453087 6.506277-.14223 6.121661-8.87862.575692-8.97912-3.966966.0205-7.39032.35138-10.233638 1.60473-6.818261 3.00553-9.194976 9.44853-9.332932 15.168024l.267005 39.828179-53.931853.266243c-7.831639.03866-8.273389-5.464693-10.172029-10.676741l-25.65019-58.813775c-4.03999-9.85369-13.16974-10.57282-26.64491-10.33251-34.85108-.26671-62.85056-6.76019-62.93969 18.57812l-.15293 69.504019c37.49931-26.903316 95.17219-13.102677 101.69071 49.5134985z" stroke-linecap="round" stroke-linejoin="round" stroke-width="4.31581" />
		<path d="m-135.37248 4.7020523a50.325952 50.599337 0 0 1 -50.32594 50.5993397 50.325952 50.599337 0 0 1 -50.32596-50.5993397 50.325952 50.599337 0 0 1 50.32596-50.5993273 50.325952 50.599337 0 0 1 50.32594 50.5993273z" stroke-width="7.15662" />
		<g stroke-width="4.31581">
			<path d="m-35.811978 26.526621a30.397171 30.465811 0 0 1 -30.397158 30.465814 30.397171 30.465811 0 0 1 -30.397171-30.465814 30.397171 30.465811 0 0 1 30.397171-30.465805 30.397171 30.465811 0 0 1 30.397158 30.465805z" />
			<path d="m-206.13427-121.17693c55.72532 0 55.09111-8.99705 71.34536 30.630533 5.12919 11.558275 1.93339 14.681127-.60859 16.648158-1.43715 1.225219-3.11344 3.004819-6.64217 2.71013l-64.29423-.293251c-1.66844-.08938-4.99344-3.055041-4.97281-5.792038l.78226-39.503512c.0182-2.43813 1.95742-4.40002 4.39013-4.40002z" fill="#fff" />
		</g>
	</g>
</svg>
