<?xml version="1.0" encoding="UTF-8" standalone="no"?>
<svg
   height="48"
   title="Moto"
   viewBox="0 0 48 48"
   width="48"
   version="1.1"
   id="svg710"
   sodipodi:docname="tractor.svg"
   inkscape:version="1.2.1 (9c6d41e410, 2022-07-14, custom)"
   xml:space="preserve"
   xmlns:inkscape="http://www.inkscape.org/namespaces/inkscape"
   xmlns:sodipodi="http://sodipodi.sourceforge.net/DTD/sodipodi-0.dtd"
   xmlns="http://www.w3.org/2000/svg"
   xmlns:svg="http://www.w3.org/2000/svg"><defs
     id="defs714" /><sodipodi:namedview
     id="namedview712"
     pagecolor="#ffffff"
     bordercolor="#000000"
     borderopacity="0.25"
     inkscape:showpageshadow="2"
     inkscape:pageopacity="0.0"
     inkscape:pagecheckerboard="0"
     inkscape:deskcolor="#d1d1d1"
     showgrid="false"
     inkscape:zoom="4.3333333"
     inkscape:cx="-38.076923"
     inkscape:cy="48.576923"
     inkscape:window-width="1920"
     inkscape:window-height="1011"
     inkscape:window-x="1366"
     inkscape:window-y="32"
     inkscape:window-maximized="1"
     inkscape:current-layer="svg710"
     showguides="true" /><filter
     id="a"
     color-interpolation-filters="sRGB"
     height="1.4941208"
     width="1.311714"
     x="-0.155857"
     y="-0.24706038"><feGaussianBlur
       stdDeviation="2.2698626"
       id="feGaussianBlur687" /></filter><path
     d="m97.905241 19.666857a6.8609966 18.091485 73.774263 0 0 -24.00205 8.304396 6.8609966 18.091485 73.774263 0 0 -2.521136 4.493965l1.343316 9.250494 2.112082.0011 21.665212-9.243984h-.002a6.8609966 18.091485 73.774263 0 0 7.298945-4.50156 6.8609966 18.091485 73.774263 0 0 -5.894433-8.304396z"
     fill-opacity=".25"
     filter="url(#a)"
     transform="matrix(.72583874 0 0 .92154075 -29.870713 7.215898)"
     id="path690" /><path
     d="m23.864366.00000005a16.948826 16.948826 0 0 0 -16.9478836 16.95009595 16.948826 16.948826 0 0 0 2.6973115 9.172629l12.9594951 18.881177h.0023a1.3189848 1.3189848 0 0 0 1.195852.766231 1.3189848 1.3189848 0 0 0 1.195852-.764016h.0023l13.136551-18.86789h-.0023a16.948826 16.948826 0 0 0 2.71065-9.188131 16.948826 16.948826 0 0 0 -16.950096-16.95009595z"
     fill="#f00"
     id="path692" /><circle
     cx="23.865322"
     cy="16.949024"
     fill="#fff"
     r="13.002331"
     id="circle694" /><g
     id="g7254"
     transform="matrix(0.08886318,0,0,0.08886318,35.456971,20.790788)"><path
       d="m -122.19389,2.8444275 21.32006,-0.2293534 c 24.625763,-32.7094361 59.170743,-17.8809491 67.634535,-3.19765504 0,0 2.464961,1.03139059 7.523166,-5.35995036 l 9.205396,-33.2620317 c 4.39028,-14.437598 -5.421616,-16.207567 -19.63652,-15.711951 l -0.122967,-37.446639 c -0.07271,-4.475711 -0.44748,-10.821887 10.601095,-10.453087 6.506277,-0.14223 6.121661,-8.87862 0.575692,-8.97912 -3.966966,0.0205 -7.39032,0.35138 -10.233638,1.60473 -6.818261,3.00553 -9.194976,9.44853 -9.332932,15.168024 l 0.267005,39.828179 -53.931853,0.266243 c -7.831639,0.03866 -8.273389,-5.464693 -10.172029,-10.676741 l -25.65019,-58.813775 c -4.03999,-9.85369 -13.16974,-10.57282 -26.64491,-10.33251 -34.85108,-0.26671 -62.85056,-6.76019 -62.93969,18.57812 l -0.15293,69.504019 c 37.49931,-26.903316 95.17219,-13.102677 101.69071,49.5134985 z"
       id="path3797"
       style="opacity:1;fill:#000000;stroke:#000000;stroke-width:4.31581;stroke-linecap:round;stroke-linejoin:round"
       sodipodi:nodetypes="cccccccccsccscccscc" /><path
       d="m -135.37248,4.7020523 a 50.325952,50.599337 0 0 1 -50.32594,50.5993397 50.325952,50.599337 0 0 1 -50.32596,-50.5993397 50.325952,50.599337 0 0 1 50.32596,-50.5993273 50.325952,50.599337 0 0 1 50.32594,50.5993273 z"
       id="path3799"
       style="opacity:1;fill:#000000;stroke:#000000;stroke-width:7.15662" /><path
       d="M -35.811978,26.526621 A 30.397171,30.465811 0 0 1 -66.209136,56.992435 30.397171,30.465811 0 0 1 -96.606307,26.526621 30.397171,30.465811 0 0 1 -66.209136,-3.939184 30.397171,30.465811 0 0 1 -35.811978,26.526621 Z"
       id="path3801"
       style="opacity:1;fill:#000000;stroke:#000000;stroke-width:4.31581" /><path
       d="m -206.13427,-121.17693 c 55.72532,0 55.09111,-8.99705 71.34536,30.630533 5.12919,11.558275 1.93339,14.681127 -0.60859,16.648158 -1.43715,1.225219 -3.11344,3.004819 -6.64217,2.71013 l -64.29423,-0.293251 c -1.66844,-0.08938 -4.99344,-3.055041 -4.97281,-5.792038 l 0.78226,-39.503512 c 0.0182,-2.43813 1.95742,-4.40002 4.39013,-4.40002 z"
       id="path3803"
       style="opacity:1;fill:#ffffff;stroke:#000000;stroke-width:4.31581"
       sodipodi:nodetypes="sccccccss" /></g></svg>
