<svg
  height="48"
  title="Caminhão"
  viewBox="0 0 48 48"
  width="48"
  xmlns="http://www.w3.org/2000/svg"
>
	<filter id="a" color-interpolation-filters="sRGB" height="1.494121" width="1.311714" x="-.155857" y="-.24706">
		<feGaussianBlur stdDeviation="2.2698626" />
	</filter>
	<path d="m97.905241 19.666857a6.8609966 18.091485 73.774263 0 0 -24.00205 8.304396 6.8609966 18.091485 73.774263 0 0 -2.521136 4.493965l1.343316 9.250494 2.112082.0011 21.665212-9.243984h-.002a6.8609966 18.091485 73.774263 0 0 7.298945-4.50156 6.8609966 18.091485 73.774263 0 0 -5.894433-8.304396z" fill-opacity=".25" filter="url(#a)" transform="matrix(.72583874 0 0 .92154075 -29.870713 7.215898)" />
	<path d="m23.864366.00000005a16.948826 16.948826 0 0 0 -16.9478836 16.95009595 16.948826 16.948826 0 0 0 2.6973115 9.172629l12.9594951 18.881177h.0023a1.3189848 1.3189848 0 0 0 1.195852.766231 1.3189848 1.3189848 0 0 0 1.195852-.764016h.0023l13.136551-18.86789h-.0023a16.948826 16.948826 0 0 0 2.71065-9.188131 16.948826 16.948826 0 0 0 -16.950096-16.95009595z" fill="#f00" />
	<circle cx="23.865322" cy="16.949024" fill="#fff" r="13.002331" />
	<path d="m16.516785 20.754525h-1.29311l-1.414923-.521466v-1.222977h3.535039c-.621093.466986-.837264 1.185745-.827006 1.744443zm12.240331-7.303393 4.161477.281832c.185665.01458.378776-.0076.502437.304849l1.01008 2.632463c.0925.213083.195806.429956.190205.608826l-.01694 2.75145c.03458.752742-.404395.684084-.724341.711746-.105357-2.951854-4.283638-2.870913-4.332142-.0065h-8.691639c-.01208-.819327-.399496-1.29263-.80902-1.745716h8.709884zm1.717484.90195.03474 2.365829 3.156176.343933c.247837.02736.335345-.08719.206272-.393437l-.686561-1.876858c-.07618-.325476-.271701-.259317-.434255-.301374zm-2.594616-2.580352h-14.06197v6.776046h14.06197zm-10.945203 8.943031a1.729257 1.729257 0 0 0 1.729257 1.729257 1.729257 1.729257 0 0 0 1.729257-1.729257 1.729257 1.729257 0 0 0 -1.729257-1.729258 1.729257 1.729257 0 0 0 -1.729257 1.729258zm13.033243 0a1.729257 1.729257 0 0 0 1.729257 1.729257 1.729257 1.729257 0 0 0 1.729257-1.729257 1.729257 1.729257 0 0 0 -1.729257-1.729258 1.729257 1.729257 0 0 0 -1.729257 1.729258z" />
</svg>
