<?xml version="1.0" encoding="UTF-8" standalone="no"?>
<svg
   height="48"
   title="Moto"
   viewBox="0 0 48 48"
   width="48"
   version="1.1"
   id="svg710"
   sodipodi:docname="vam.svg"
   inkscape:version="1.2.1 (9c6d41e410, 2022-07-14, custom)"
   xml:space="preserve"
   xmlns:inkscape="http://www.inkscape.org/namespaces/inkscape"
   xmlns:sodipodi="http://sodipodi.sourceforge.net/DTD/sodipodi-0.dtd"
   xmlns="http://www.w3.org/2000/svg"
   xmlns:svg="http://www.w3.org/2000/svg"><defs
     id="defs714" /><sodipodi:namedview
     id="namedview712"
     pagecolor="#ffffff"
     bordercolor="#000000"
     borderopacity="0.25"
     inkscape:showpageshadow="2"
     inkscape:pageopacity="0.0"
     inkscape:pagecheckerboard="0"
     inkscape:deskcolor="#d1d1d1"
     showgrid="false"
     inkscape:zoom="2.1666667"
     inkscape:cx="149.07692"
     inkscape:cy="-9.4615384"
     inkscape:window-width="1920"
     inkscape:window-height="1011"
     inkscape:window-x="1366"
     inkscape:window-y="32"
     inkscape:window-maximized="1"
     inkscape:current-layer="svg710"
     showguides="true"><sodipodi:guide
       position="112.57475,45.855684"
       orientation="0,-1"
       id="guide1231"
       inkscape:locked="false" /></sodipodi:namedview><filter
     id="a"
     color-interpolation-filters="sRGB"
     height="1.4941208"
     width="1.311714"
     x="-0.155857"
     y="-0.24706038"><feGaussianBlur
       stdDeviation="2.2698626"
       id="feGaussianBlur687" /></filter><path
     d="m97.905241 19.666857a6.8609966 18.091485 73.774263 0 0 -24.00205 8.304396 6.8609966 18.091485 73.774263 0 0 -2.521136 4.493965l1.343316 9.250494 2.112082.0011 21.665212-9.243984h-.002a6.8609966 18.091485 73.774263 0 0 7.298945-4.50156 6.8609966 18.091485 73.774263 0 0 -5.894433-8.304396z"
     fill-opacity=".25"
     filter="url(#a)"
     transform="matrix(.72583874 0 0 .92154075 -29.870713 7.215898)"
     id="path690" /><path
     d="m23.864366.00000005a16.948826 16.948826 0 0 0 -16.9478836 16.95009595 16.948826 16.948826 0 0 0 2.6973115 9.172629l12.9594951 18.881177h.0023a1.3189848 1.3189848 0 0 0 1.195852.766231 1.3189848 1.3189848 0 0 0 1.195852-.764016h.0023l13.136551-18.86789h-.0023a16.948826 16.948826 0 0 0 2.71065-9.188131 16.948826 16.948826 0 0 0 -16.950096-16.95009595z"
     fill="#f00"
     id="path692" /><circle
     cx="23.865322"
     cy="16.949024"
     fill="#fff"
     r="13.002331"
     id="circle694" /><g
     id="g1251"
     transform="matrix(0.22830826,0,0,0.22830826,-5.9450848,20.455008)"><path
       d="m 93.724203,-44.84949 c -7.64911,0.989054 -9.612877,7.086281 -9.865484,10.942245 l 0.09755,23.40086 c -1.090413,0.213054 -2.249138,0.7489137 -2.435071,1.736136 -0.646226,3.4311654 -0.145883,8.13204569 0.319052,9.3722717 0.300479,0.8015351 1.445216,1.061843 2.361793,1.5422933 h 4.731592 c 1.348367,-19.470325 23.998055,-15.069658 23.641115,0 h 35.64201 c 0.59158,-17.093756 23.84182,-16.974239 23.8005,0 h 3.08481 c 2.11818,-0.1324371 4.52684,-0.9815351 5.50358,-3.03599671 0.60453,-2.25944919 0.6319,-5.28684659 0.29051,-6.24626969 -0.14755,-0.4146482 -0.86859,-1.2012028 -1.31685,-1.4170901 -0.65191,-0.1458329 -0.35969,-1.9626265 -0.49827,-2.4581195 -0.0618,-3.946188 0.18483,-6.767243 -1.21101,-10.113946 -1.22039,-3.234889 -14.40704,-18.522231 -18.21894,-21.897185 -1.07623,-0.952864 -3.58718,-1.890606 -5.75085,-1.850174 z"
       id="path1093"
       style="opacity:1;fill:#000000;stroke:none;stroke-width:1.20815"
       sodipodi:nodetypes="cccsscccccccscccscc" /><path
       style="opacity:1;fill:#ffffff;stroke:none;stroke-width:1.20815"
       d="m 151.1879,-38.584164 c 7.60575,-0.221089 8.21456,4.125133 17.12315,12.80516 1.54402,1.341921 0.21227,2.559049 -0.62411,2.514353 l -20.74267,-0.346016 c -0.46759,-0.02499 -1.39942,-0.854247 -1.39364,-1.619567 l -0.0994,-11.992603 c 0.005,-0.681748 0.54886,-1.210524 1.23034,-1.230334 z"
       id="path1099"
       sodipodi:nodetypes="scccccss" /><path
       d="m 109.0886,0.99022127 a 8.5188292,8.5188292 0 0 1 -8.51883,8.51882993 8.5188292,8.5188292 0 0 1 -8.51883,-8.51882993 8.5188292,8.5188292 0 0 1 8.51883,-8.51882747 8.5188292,8.5188292 0 0 1 8.51883,8.51882747 z"
       id="path1095"
       style="opacity:1;fill:#000000;stroke:none;stroke-width:1.20815" /><path
       d="m 168.50316,0.99022127 a 8.5188292,8.5188292 0 0 1 -8.51882,8.51882993 8.5188292,8.5188292 0 0 1 -8.51883,-8.51882993 8.5188292,8.5188292 0 0 1 8.51883,-8.51882747 8.5188292,8.5188292 0 0 1 8.51882,8.51882747 z"
       id="path1097"
       style="opacity:1;fill:#000000;stroke:none;stroke-width:1.20815" /></g></svg>
