<svg height="48" viewBox="0 0 48 48" width="48" xmlns="http://www.w3.org/2000/svg"><path d="m33.01895 39.91642-7.42464 7.42463c-.87872.87872-2.30325.87872-3.18197 0l-7.42463-7.42463c-1.41741-1.41741-.41353-3.84103 1.59103-3.84094h4.79644l-.00009-9.45048h-9.45038v4.79644c0 2.00457-2.42354 3.00845-3.84104 1.59104l-7.42463-7.42463c-.87872-.87872-.87872-2.30335 0-3.18198l7.42463-7.42463c1.41741-1.41741 3.84104-.41353 3.84104 1.59103v4.80273h9.45038v-9.45039h-4.80282c-2.00456 0-3.00844-2.42353-1.59103-3.84103l7.42463-7.42463c.87872-.87872 2.30326-.87872 3.18198 0l7.42463 7.42463c1.41741 1.41741.41353 3.84103-1.59104 3.84103h-4.79644v9.45039h9.45039v-4.79644c0-2.00457 2.42353-3.00845 3.84094-1.59104l7.42463 7.42463c.87872.87872.87872 2.30335 0 3.18198l-7.42463 7.42463c-1.41741 1.41741-3.84104.41353-3.84094-1.59103v-4.80273h-9.45029v9.45039h4.80281c2.00457 0 3.00844 2.42353 1.59104 3.84103z" stroke-width=".09375"/></svg>