<svg height="48" viewBox="0 0 48 48" width="48" xmlns="http://www.w3.org/2000/svg"><path d="m42.84486 32.288869c-2.3484 1.90591-4.93398 3.48557-7.738 4.59837l5.09804 8.83018 5.05774 2.15996c.91967.39281 1.95841-.20718 2.0784-1.19998l.65812-5.46085zm3.98338-8.86486c.45562-.71905.17718-1.68653-.56718-2.09903l-2.63152-1.45966c-.70124-.38906-1.55716-.13688-1.9931.53624-3.854 5.95584-10.48764 9.59797-17.63597 9.59797-2.2434 0-4.42774-.39843-6.50709-1.08092l6.3149-10.93858c.0656.002.12563.0197.19125.0197.0656 0 .12656-.0178.19125-.0197l4.78961 8.29675c2.92777-.83999 5.58366-2.41403 7.74457-4.58618l-4.85524-8.41018c.69843-1.27779 1.13061-2.72152 1.13061-4.2805604 0-4.97055-4.02931-8.99986003-8.99986-8.99986003s-8.99986 4.02931003-8.99986 8.99986003c0 1.5590404.43218 3.0027704 1.12967 4.2805604l-6.40303 11.09139c-1.17654-1.08842-2.24621-2.30528-3.15745-3.65619-.44905-.66562-1.30966-.90186-2.00434-.49968l-2.60152 1.50654c-.73593.42561-.99655 1.39685-.52875 2.10653 1.45967 2.21621 3.25214 4.14462 5.24805 5.81428l-6.6824 11.57419.65812 5.46086c.11999.99279 1.15873 1.59279 2.0784 1.19998l5.05774-2.15997 6.63739-11.49638c3.01777 1.14748 6.25116 1.77747 9.56798 1.77747 9.28579 0 17.89472-4.78211 22.82777-12.57543zm-22.82777-17.4241004c1.65654 0 2.99995 1.34341 2.99995 2.99995 0 1.6565404-1.34341 2.9999504-2.99995 2.9999504s-2.99995-1.34341-2.99995-2.9999504c0-1.65654 1.34341-2.99995 2.99995-2.99995z" stroke-width=".093749"/></svg>