<svg height="48" viewBox="0 0 48 48" width="48" xmlns="http://www.w3.org/2000/svg"><path d="m47.678876 17.33665-5.96965-10.16189c-.65996-1.12493-2.12237-1.50741-3.2623-.86244l-5.17469 2.93232 4.47723 7.62704c.16499.28498.0675.63746-.21748.80245l-1.03494.58497c-.28498.16499-.65246.0675-.81745-.21749l-4.47723-7.61954-4.13975 2.34736 2.09237 3.55478c.16499.28499.0675.63746-.21749.80245l-1.03493.58497c-.28499.16499-.65246.0675-.81745-.21749l-2.09238-3.54728-4.13975 2.34735 4.48473 7.62704c.16499.27749.0675.63747-.21749.80246l-1.03493.58496c-.28499.16499-.65246.0675-.81745-.21749l-4.47723-7.62704-4.13976 2.34736 2.09238 3.55479c.16499.28498.0675.63746-.21749.80245l-1.03494.58496c-.28498.16499-.65246.0675-.81745-.21748l-2.09237-3.56229-4.1397503 2.34736 4.4772303 7.62704c.16499.27748.0675.63746-.21749.80245l-1.03494.58497c-.28498.16499-.65246.0675-.81745-.21749l-4.4772303-7.60454-5.17468 2.93232c-1.13994002.65246-1.53741002 2.08488-.87745002 3.20981l5.96964002 10.16939c.65996 1.12493 2.12237 1.50741 3.2623.86244l37.2577603-21.14122c1.13993-.64496 1.52991-2.08488.86995-3.20981z" stroke-width=".074996"/></svg>