<svg width="74" height="30" viewBox="0 0 74 30" fill="none" xmlns="http://www.w3.org/2000/svg">
<g filter="url(#filter0_d)">
<path d="M58 19.8V10.2C58 9.48 58.6667 9 59.6667 9H71.3333C72.3333 9 73 9.48 73 10.2V19.8C73 20.52 72.3333 21 71.3333 21H59.6667C58.6667 21 58 20.52 58 19.8Z" fill="#CFD8DC"/>
<path d="M1.00002 26.6667V3.33333C1.00002 2.05 2.62002 1 4.60002 1L65.8 1C67.78 1 69.4 2.05 69.4 3.33333V26.6667C69.4 27.95 67.78 29 65.8 29L4.60002 29C2.62002 29 1.00002 27.95 1.00002 26.6667Z" fill="#CFD8DC"/>
<path d="M35 5C33.0222 5 31.0888 5.58649 29.4443 6.6853C27.7998 7.78412 26.5181 9.3459 25.7612 11.1732C25.0043 13.0004 24.8063 15.0111 25.1922 16.9509C25.578 18.8907 26.5304 20.6725 27.9289 22.0711C29.3275 23.4696 31.1093 24.422 33.0491 24.8078C34.9889 25.1937 36.9996 24.9957 38.8268 24.2388C40.6541 23.4819 42.2159 22.2002 43.3147 20.5557C44.4135 18.9112 45 16.9778 45 15C45 12.3478 43.9464 9.8043 42.0711 7.92893C40.1957 6.05357 37.6522 5 35 5ZM35 23.3333C33.3518 23.3333 31.7407 22.8446 30.3703 21.9289C28.9998 21.0132 27.9317 19.7117 27.301 18.189C26.6703 16.6663 26.5053 14.9908 26.8268 13.3742C27.1483 11.7577 27.942 10.2729 29.1074 9.10744C30.2729 7.94201 31.7577 7.14833 33.3743 6.82679C34.9908 6.50525 36.6663 6.67027 38.189 7.301C39.7117 7.93173 41.0132 8.99984 41.9289 10.3702C42.8446 11.7407 43.3333 13.3518 43.3333 15C43.3333 16.0943 43.1178 17.178 42.699 18.189C42.2802 19.2001 41.6664 20.1187 40.8926 20.8926C40.1187 21.6664 39.2001 22.2802 38.189 22.699C37.178 23.1178 36.0944 23.3333 35 23.3333Z" fill="#FF0000" fill-opacity="0.25"/>
<path d="M35 16.7249C34.7126 16.7249 34.4371 16.6108 34.2339 16.4076C34.0308 16.2044 33.9166 15.9289 33.9166 15.6416V10.6416C33.9166 10.3542 34.0308 10.0787 34.2339 9.87553C34.4371 9.67236 34.7126 9.55823 35 9.55823C35.2873 9.55823 35.5628 9.67236 35.766 9.87553C35.9692 10.0787 36.0833 10.3542 36.0833 10.6416V15.6416C36.0833 15.9289 35.9692 16.2044 35.766 16.4076C35.5628 16.6108 35.2873 16.7249 35 16.7249Z" fill="#FF0000" fill-opacity="0.25"/>
<path d="M34.9584 20.4333C35.6487 20.4333 36.2084 19.8737 36.2084 19.1833C36.2084 18.493 35.6487 17.9333 34.9584 17.9333C34.268 17.9333 33.7084 18.493 33.7084 19.1833C33.7084 19.8737 34.268 20.4333 34.9584 20.4333Z" fill="#FF0000" fill-opacity="0.25"/>
</g>
<defs>
<filter id="filter0_d" x="0" y="0" width="74" height="30" filterUnits="userSpaceOnUse" color-interpolation-filters="sRGB">
<feFlood flood-opacity="0" result="BackgroundImageFix"/>
<feColorMatrix in="SourceAlpha" type="matrix" values="0 0 0 0 0 0 0 0 0 0 0 0 0 0 0 0 0 0 127 0" result="hardAlpha"/>
<feOffset/>
<feGaussianBlur stdDeviation="0.5"/>
<feComposite in2="hardAlpha" operator="out"/>
<feColorMatrix type="matrix" values="0 0 0 0 1 0 0 0 0 0 0 0 0 0 0 0 0 0 0.25 0"/>
<feBlend mode="normal" in2="BackgroundImageFix" result="effect1_dropShadow"/>
<feBlend mode="normal" in="SourceGraphic" in2="effect1_dropShadow" result="shape"/>
</filter>
</defs>
</svg>
