<svg width="72" height="28" viewBox="0 0 72 28" fill="none" xmlns="http://www.w3.org/2000/svg">
<path d="M2.16961e-05 25.6667V2.33333C2.16961e-05 1.05 1.62002 0 3.60002 0L64.8 0C66.78 0 68.4 1.05 68.4 2.33333V25.6667C68.4 26.95 66.78 28 64.8 28L3.60002 28C1.62002 28 2.16961e-05 26.95 2.16961e-05 25.6667Z" fill="#CFD8DC"/>
<path d="M55.8 18.6667V9.33341C55.8 8.63341 56.52 8.16675 57.6 8.16675H70.2C71.28 8.16675 72 8.63341 72 9.33341V18.6667C72 19.3667 71.28 19.8334 70.2 19.8334H57.6C56.52 19.8334 55.8 19.3667 55.8 18.6667Z" fill="#CFD8DC"/>
<path d="M-3.57628e-07 25.6667V2.33333C-3.57628e-07 1.05 1.54286 0 3.42857 0L36 0V28L3.42857 28C1.54286 28 -3.57628e-07 26.95 -3.57628e-07 25.6667Z" fill="#8BC34A"/>
</svg>
