<svg width="72" height="28" viewBox="0 0 72 28" fill="none" xmlns="http://www.w3.org/2000/svg">
<path d="M2.16961e-05 25.6667V2.33333C2.16961e-05 1.05 1.62002 0 3.60002 0L64.8 0C66.78 0 68.4 1.05 68.4 2.33333V25.6667C68.4 26.95 66.78 28 64.8 28L3.60002 28C1.62002 28 2.16961e-05 26.95 2.16961e-05 25.6667Z" fill="#CFD8DC"/>
<path d="M55.8 18.6666V9.33329C55.8 8.63329 56.52 8.16663 57.6 8.16663H70.2C71.28 8.16663 72 8.63329 72 9.33329V18.6666C72 19.3666 71.28 19.8333 70.2 19.8333H57.6C56.52 19.8333 55.8 19.3666 55.8 18.6666Z" fill="#CFD8DC"/>
<path d="M5.03063e-05 25.6667V2.33333C5.03063e-05 1.05 1.62005 0 3.60005 0L55.8 0V28L3.60005 28C1.62005 28 5.03063e-05 26.95 5.03063e-05 25.6667Z" fill="#8BC34A"/>
</svg>
