<svg
  viewBox="0 0 48 48"
  xmlns="http://www.w3.org/2000/svg"
>
	<path d="m39.8806 31.563403-11.590707-20.076064c-1.893208-3.316452-6.680676-3.316452-8.567013 0l-11.5975016 20.076064c-1.8932085 3.316447.4630155 7.436597 4.2834676 7.436597h23.147379c3.820452 0 6.217584-4.160975 4.324375-7.436597zm-15.881047 2.982788c-1.007847 0-1.845504-.837658-1.845504-1.845505 0-1.007924.837657-1.845513 1.845504-1.845513 1.007923 0 1.845588.837589 1.804681 1.893208.0477.960152-.837588 1.79781-1.804681 1.79781zm1.682113-11.931162c-.08173 1.43004-.17019 2.853354-.251997 4.283469-.0408.463094-.0408.885285-.0408 1.341582-.0408.755927-.633358 1.341588-1.389285 1.341588-.75592 0-1.341582-.54483-1.389202-1.300682-.122565-2.226941-.252003-4.412977-.374565-6.639844-.0408-.585663-.08174-1.178114-.12936-1.763844 0-.966947.544755-1.763774 1.430116-2.015702.885285-.211165 1.763774.211097 2.145129 1.048755.12936.292827.17019.585662.17019.926115-.0408.93305-.12936 1.859168-.17019 2.778488z" />
</svg>
