<svg
  viewBox="0 0 48 48"
  xmlns="http://www.w3.org/2000/svg"
>
	<path d="m35.10194 12.12387c-3.02536-2.83277-6.95149-4.38561-11.11665-4.38193-7.49594.007-13.96723 5.14625-15.75397 12.2758-.13006.519-.59245.88549-1.12751.88549h-5.54546c-.72561 0-1.27683-.65875-1.14261-1.37188 2.09391-11.11935 11.85649-19.53135 23.58426-19.53135 6.43045 0 12.2701 2.52929 16.57887 6.64694l3.45629-3.45629c1.46313-1.46313 3.96484-.42688 3.96484 1.64235v12.97345c0 1.28274-1.03984 2.32258-2.32258 2.32258h-12.97345c-2.06923 0-3.10549-2.50171-1.64236-3.96493zm-32.77936 15.7471h12.97345c2.06923 0 3.10549 2.50171 1.64236 3.96493l-4.04033 4.04033c3.02536 2.83287 6.95178 4.38571 11.11704 4.38193 7.49206-.007 13.96596-5.14297 15.75358-12.27571.13006-.519.59245-.88548 1.12751-.88548h5.54555c.72561 0 1.27684.65874 1.14261 1.37187-2.094 11.11916-11.85658 19.53116-23.58435 19.53116-6.43045 0-12.2701-2.52929-16.57887-6.64694l-3.45629 3.45629c-1.46313 1.46313-3.96484.42688-3.96484-1.64235v-12.97345c0-1.28274 1.03984-2.32258 2.32258-2.32258z" stroke-width=".096774" />
</svg>
