<svg
  title="bell"
  viewBox="0 0 48 48"
  xmlns="http://www.w3.org/2000/svg"
>
  <path d="m23.999996 42c2.483438 0 4.497894-2.014456 4.497894-4.5h-8.995786c0 2.485544 2.014456 4.5 4.497892 4.5zm15.144608-10.526482c-1.358436-1.459688-3.900232-3.655552-3.900232-10.848518 0-5.463284-3.830626-9.836722-8.995778-10.9096875v-1.4653125c0-1.24242-1.006874-2.25-2.248598-2.25-1.241714 0-2.248588 1.00758-2.248588 2.25v1.4653125c-5.165162 1.0729655-8.995787 5.4464035-8.995787 10.9096875 0 7.192966-2.541794 9.38883-3.9002316 10.848518-.421875.45351-.6089101.995624-.6053925 1.526482.00772 1.153125.91266 2.25 2.2570351 2.25h26.985938c1.344374 0 2.25-1.096875 2.257026-2.25.0038-.530858-.183516-1.07367-.605392-1.526482z" />
</svg>