<svg
  viewBox="0 0 48 48"
	xmlns="http://www.w3.org/2000/svg"
>
	<path d="m39 24c0 8.286109-6.71631 15-15 15s-15-6.713891-15-15c0-8.28127 6.71631-15 15-15s15 6.71873 15 15zm-15 3.024194c-1.53659 0-2.78226 1.245665-2.78226 2.782258 0 1.536592 1.24567 2.782258 2.78226 2.782258s2.78226-1.245666 2.78226-2.782258c0-1.536593-1.24567-2.782258-2.78226-2.782258zm-2.64151-10.000767.44867 8.225807c.021.384919.33925.68625.72471.68625h2.93625c.38547 0 .70373-.301331.72472-.68625l.44867-8.225807c.0227-.415766-.30834-.765362-.72472-.765362h-3.83364c-.41638 0-.74734.349596-.72466.765362z" />
</svg>
