<svg title="Ignição"
     viewBox="0 0 48 48"
		 xmlns="http://www.w3.org/2000/svg">
	<g stroke-linecap="round">
		<path d="m11.128906 7.2617191a4 4 0 0 0 -2.8281247 1.1718749c-6.2857183 6.285719-8.1732909 15.769735-4.7714844 23.982422 3.4018064 8.212687 11.4426831 13.583984 20.3320311 13.583984 8.889349 0 16.930225-5.371297 20.332031-13.583984s1.514235-17.696704-4.771484-23.982422a4 4 0 0 0 -5.65625 0 4 4 0 0 0 0 5.65625c4.013983 4.013983 5.207508 10.019151 3.035156 15.263672-2.172351 5.244521-7.262824 8.646484-12.939453 8.646484s-10.769054-3.401963-12.941406-8.646484c-2.1723521-5.244521-.9768735-11.249689 3.037109-15.263672a4 4 0 0 0 0-5.65625 4 4 0 0 0 -2.828125-1.1718749z" />
		<path d="m23.322266 2a4 4 0 0 0 -4 4v14.199219a4 4 0 0 0 4 4 4 4 0 0 0 4-4v-14.199219a4 4 0 0 0 -4-4z" />
	</g>
</svg>
