<svg
  viewBox="0 0 48 48"
  xmlns="http://www.w3.org/2000/svg"
>
	<path d="m24.001165 14.999563c-4.959615 0-9.000436 4.040821-9.000436 9.000437s4.040821 9.000437 9.000436 9.000437c4.959616 0 9.000437-4.040821 9.000437-9.000437s-4.040821-9.000437-9.000437-9.000437zm23.101122 7.547241-8.878556-4.43459 3.140777-9.4129569c.421896-1.275062-.787538-2.484495-2.053224-2.053224l-9.412957 3.140777-4.443966-8.88793097c-.600029-1.20005901-2.306362-1.20005901-2.906391 0l-4.43459 8.87855497-9.4223323-3.140777c-1.275062-.421895-2.484496.787538-2.053225 2.053225l3.140777 9.4129569-8.87855601 4.443965c-1.200058.600029-1.200058 2.306362 0 2.906391l8.87855601 4.434591-3.140777 9.422332c-.421896 1.275062.787538 2.484492 2.053225 2.053225l9.4129573-3.140778 4.434589 8.878555c.60003 1.20006 2.306362 1.20006 2.906392 0l4.43459-8.878555 9.412957 3.140778c1.275062.421897 2.484495-.787538 2.053224-2.053225l-3.140777-9.412957 8.878556-4.43459c1.218809-.609405 1.218809-2.315738.01875-2.915767zm-14.616335 9.937983c-4.678352 4.678352-12.291221 4.678352-16.969573 0s-4.678352-12.291222 0-16.969574 12.291221-4.678352 16.969573 0 4.678352 12.291222 0 16.969574z" stroke-width=".093755" />
</svg>
