<svg viewBox="0 0 48 48" title="Menu" xmlns="http://www.w3.org/2000/svg">
	<g>
		<path d="m9.2188389 34.181818a2.9090909 2.9090909 0 0 0 -2.9090909 2.909091 2.9090909 2.9090909 0 0 0 2.9090909 2.909091h30.5994311a2.9090909 2.9090909 0 0 0 2.909091-2.909091 2.9090909 2.9090909 0 0 0 -2.909091-2.909091z" />
		<path d="m9.2188389 21.090909a2.9090909 2.9090909 0 0 0 -2.9090909 2.909091 2.9090909 2.9090909 0 0 0 2.9090909 2.909091h30.5994311a2.9090909 2.9090909 0 0 0 2.909091-2.909091 2.9090909 2.9090909 0 0 0 -2.909091-2.909091z" />
		<path d="m9.2188389 8a2.9090909 2.9090909 0 0 0 -2.9090909 2.909091 2.9090909 2.9090909 0 0 0 2.9090909 2.909091h30.5994311a2.9090909 2.9090909 0 0 0 2.909091-2.909091 2.9090909 2.9090909 0 0 0 -2.909091-2.909091z" />
	</g>
</svg>
