<svg
  viewBox="0 0 48 48"
	xmlns="http://www.w3.org/2000/svg"
>
	<path d="m23.809519.0000425c-6.69054-.00224-11.748725 5.7233895-11.748725 12.3647305l-.02835 6.293816h-2.7234165c-1.6188469 0-3.0840894 1.368668-3.0840894 2.986827v23.542025c0 1.618502 1.4652425 2.812561 3.0840894 2.812561h29.4265235c1.6185 0 3.039511-1.194059 3.039511-2.812561v-23.542025c0-1.617811-1.421011-2.986827-3.039511-2.986827h-3.209723l.02836-6.289762v-.0041c0-6.6436999-5.059907-12.3625232-11.744669-12.3647291zm-.0041 5.2076953c3.783415.00125 6.54508 3.0342711 6.545082 7.1570352l-.02836 6.293816h-13.082047l.02836-6.289761v-.0041c0-4.125124 2.748871-7.1582814 6.536975-7.1570353zm.206691 20.2066712c2.657125 0 4.814586 2.157462 4.814586 4.814586 0 1.989218-1.204237 3.69273-2.93009 4.425527v5.057748h-3.79331v-5.057748c-1.725838-.732797-2.90981-2.436309-2.90981-4.425527 0-2.657124 2.161515-4.814586 4.818638-4.814586z" />
</svg>
