<svg viewBox="0 0 48 48" xmlns="http://www.w3.org/2000/svg">
	<g transform="matrix(.04895961 0 0 .04895961 -.489597 -.486537)">
		<path d="m983.8 425.7c-2.3-15.3-12.9-28.1-27.5-33.3l-77.1-27.4c-4.6-12.9-9.7-25.5-15.5-37.7l35.1-73.9c6.6-13.9 5.1-30.4-4.1-42.9-29.6-40.3-65-75.7-105.2-105.1-12.5-9.2-28.9-10.7-42.9-4.1l-73.9 35.1c-12.2-5.7-24.8-10.9-37.7-15.5l-27.5-77.2c-5.2-14.5-17.9-25.1-33.2-27.4-54.3-8.3-94.4-8.3-148.8 0-15.3 2.4-28 12.9-33.2 27.4l-27.3 77.2c-12.9 4.6-25.5 9.7-37.7 15.5l-73.9-35.1c-13.9-6.6-30.4-5.1-42.9 4.1-40.2 29.5-75.6 64.9-105.2 105.1-9.2 12.5-10.7 29-4.1 42.9l35.1 73.9c-5.7 12.1-10.9 24.7-15.5 37.7l-77.2 27.5c-14.6 5.2-25.1 17.9-27.4 33.2-4.2 27.6-6.2 51.2-6.2 74.3 0 23 2 46.7 6.2 74.4 2.3 15.3 12.9 28.1 27.5 33.3l77.2 27.5c4.6 13 9.8 25.5 15.5 37.7l-35.1 73.9c-6.6 13.9-5.1 30.4 4.1 42.9 29.6 40.2 65 75.6 105.2 105.2 12.5 9.2 28.9 10.7 42.9 4.1l73.9-35.1c12.2 5.7 24.8 10.9 37.7 15.5l27.5 77.2c5.2 14.5 17.9 25.1 33.2 27.4 27.2 4.2 51.5 6.2 74.4 6.2s47.3-2 74.4-6.2c15.3-2.4 28-12.9 33.2-27.4l27.5-77.2c12.9-4.6 25.5-9.7 37.7-15.5l73.9 35.1c14 6.7 30.4 5.1 42.9-4.1 40.3-29.6 75.7-65 105.2-105.2 9.1-12.4 10.7-28.9 4.1-42.9l-35.1-73.9c5.7-12.2 10.9-24.8 15.5-37.7l77.2-27.5c14.6-5.2 25.1-17.9 27.5-33.3 4.2-27.7 6.2-51.3 6.2-74.4-.4-23-2.4-46.7-6.6-74.3zm-79.8 111.4-72.4 25.8c-12.7 4.5-22.4 14.8-26.2 27.7-6.5 21.9-15 42.6-25.3 61.5-6.4 11.8-6.8 26-1.1 38.1l32.9 69.1c-15.9 19.1-33.4 36.6-52.5 52.5l-69.2-32.8c-12.2-5.8-26.3-5.4-38.1 1-19 10.3-39.7 18.8-61.6 25.3-12.9 3.8-23.2 13.5-27.7 26.2l-25.7 72.5c-26.3 2.7-47.8 2.7-74.1 0l-25.8-72.5c-4.5-12.6-14.8-22.4-27.7-26.2-21.9-6.5-42.6-15-61.6-25.3-11.8-6.5-26-6.9-38.1-1l-69.1 32.8c-19.1-15.9-36.6-33.4-52.5-52.5l32.9-69.1c5.8-12.1 5.4-26.3-1.1-38.1-10.3-18.9-18.8-39.6-25.3-61.6-3.8-12.9-13.6-23.2-26.2-27.6l-72.5-25.8c-1.4-13.2-2-25.3-2-37.1s.7-23.9 2-37l72.4-25.8c12.6-4.5 22.4-14.8 26.2-27.6 6.5-21.9 15-42.6 25.3-61.6 6.4-11.8 6.8-26 1.1-38.1l-32.9-69.1c15.9-19.1 33.5-36.7 52.5-52.5l69.1 32.8c12.1 5.8 26.3 5.4 38.1-1 19-10.3 39.7-18.8 61.6-25.3 12.9-3.8 23.2-13.6 27.7-26.2l25.8-72.5c26.1-2.7 47.6-2.7 74.1 0l25.8 72.5c4.5 12.6 14.8 22.4 27.7 26.2 21.9 6.5 42.6 15 61.6 25.3 11.8 6.5 26 6.9 38.1 1l69.1-32.8c19.1 15.9 36.6 33.4 52.5 52.5l-32.8 69c-5.8 12.1-5.4 26.3 1.1 38.1 10.4 19.1 18.9 39.8 25.3 61.6 3.8 12.9 13.5 23.2 26.2 27.7l72.4 25.8c1.4 13.2 2 25.3 2 37.1 0 11.7-.7 23.8-2 37z" />
		<path d="m500 295.7c-107.2 0-194.4 87.2-194.4 194.4s87.2 194.5 194.4 194.5 194.4-87.2 194.4-194.4-87.2-194.5-194.4-194.5zm0 304.9c-60.9 0-110.4-49.5-110.4-110.4s49.5-110.4 110.4-110.4 110.4 49.5 110.4 110.4c0 60.8-49.5 110.4-110.4 110.4z" />
	</g>
</svg>
