<svg
  viewBox="0 0 48 48"
  title="Sirene"
  xmlns="http://www.w3.org/2000/svg"
>
  <path d="m17.91917 8.5869449-7.41417 7.4125001h-8.50499c-1.105 0-2.00001.895-2.00001 2v12c0 1.10417.89501 2 2.00001 2h8.50499l7.41417 7.4125c1.2525 1.2525 3.41417.3725 3.41417-1.41416v-27.99667c0-1.7883401-2.16334-2.6650001-3.41417-1.4141701zm19.44333-4.25667c-.93083-.61083-2.18166-.35333-2.7925.57917-.61166.93083-.35166 2.18167.57917 2.7925 5.5225 3.6241701 8.81833 9.7166701 8.81833 16.2983301 0 6.58167-3.29583 12.67417-8.81833 16.29834-.93083.61-1.19083 1.86167-.57917 2.79167.58667.8925 1.8275 1.21333 2.7925.57916 6.66-4.37166 10.6375-11.72583 10.6375-19.67 0-7.94416-3.9775-15.2975001-10.6375-19.6691701zm2.6375 19.6691701c0-5.29416-2.67166-10.16166-7.1475-13.02-.9325-.595-2.16916-.31833-2.76.62167-.59083.94-.315 2.18417.6175 2.78 3.3125 2.11583 5.29 5.71083 5.29 9.61833s-1.9775 7.5025-5.29 9.61834c-.9325.595-1.20833 1.83916-.6175 2.78.5425.86333 1.76 1.26166 2.76.62166 4.47584-2.85833 7.1475-7.725 7.1475-13.02zm-11.81416-6.40583c-.965-.5275-2.1825-.18-2.7175.7875-.5325.9675-.18 2.18333.7875 2.7175 1.07583.59083 1.74416 1.70333 1.74416 2.90083 0 1.19833-.66833 2.31-1.74333 2.90084-.9675.53416-1.32 1.75-.7875 2.7175.53583.97166 1.75417 1.31666 2.7175.7875 2.3525-1.29584 3.81417-3.75 3.81417-6.40667s-1.46167-5.11-3.815-6.405z" />
</svg>