<svg
  title="Bateria interna"
	viewBox="0 0 56 48"
	xmlns="http://www.w3.org/2000/svg"
>
	<path d="m33.533737 16.598705c.99516.000474 1.803058 1.036264 1.80343 2.315755-.000222.227488-.02625.455326-.07772.67298l-3.981714 22.484571-.0069-.0059c-.61557 3.05513-2.759063 5.190338-5.213713 5.195755-2.978896-.000113-5.394199-3.102563-5.394286-6.932572.0046-1.180466.244192-2.342277.694857-3.370775l-.01147-.0059.06628-.120493c.172081-.384302.372984-.746351.598856-1.081469l10.000001-18.076343c.01235-.02361.02583-.04753.03885-.07052l.08458-.152817.0046.003c.341796-.540333.852643-.854145 1.394325-.855183z" />
	<g stroke-linecap="round">
		<g>
			<path d="m11.424779 32.430293-8.9578724-5.17183" />
			<path d="m2.078125 25.810547a1.5 1.5 0 0 0 -.9101563.697265 1.5 1.5 0 0 0 .5488282 2.048829l8.9570311 5.171875a1.5 1.5 0 0 0 2.050781-.548829 1.5 1.5 0 0 0 -.550781-2.048828l-8.9570311-5.171875a1.5 1.5 0 0 0 -1.1386719-.148437z" />
		</g>
		<g>
			<path d="m17.175894 23.2521-5.849754-10.13207" />
			<path d="m11.714844 11.671875a1.5 1.5 0 0 0 -1.138672.148438 1.5 1.5 0 0 0 -.548828 2.048828l5.849609 10.132812a1.5 1.5 0 0 0 2.048828.548828 1.5 1.5 0 0 0 .548828-2.048828l-5.849609-10.132812a1.5 1.5 0 0 0 -.910156-.697266z" />
		</g>
		<g>
			<path d="m28 18.630017v-12.630018" />
			<path d="m28 4.5a1.5 1.5 0 0 0 -1.5 1.5v12.630859a1.5 1.5 0 0 0 1.5 1.5 1.5 1.5 0 0 0 1.5-1.5v-12.630859a1.5 1.5 0 0 0 -1.5-1.5z" />
		</g>
		<g>
			<path d="m38.824105 23.252101 5.849754-10.132071" />
			<path d="m44.285156 11.671875a1.5 1.5 0 0 0 -.910156.697266l-5.849609 10.132812a1.5 1.5 0 0 0 .548828 2.048828 1.5 1.5 0 0 0 2.048828-.548828l5.849609-10.132812a1.5 1.5 0 0 0 -.548828-2.048828 1.5 1.5 0 0 0 -1.138672-.148438z" />
		</g>
		<g>
			<path d="m44.57522 32.430293 8.957873-5.17183" />
			<path d="m52.783203 25.958984-8.957031 5.171875a1.5 1.5 0 0 0 -.550781 2.048828 1.5 1.5 0 0 0 2.050781.548829l8.957031-5.171875a1.5 1.5 0 0 0 .548828-2.048829 1.5 1.5 0 0 0 -2.048828-.548828z" />
		</g>
		<g>
			<path d="m10.660838 24.660839-4.7416621-4.741662" />
			<path d="m5.9199219 18.419922a1.5 1.5 0 0 0 -1.0605469.439453 1.5 1.5 0 0 0 0 2.121094l4.7402344 4.740234a1.5 1.5 0 0 0 2.1210936 0 1.5 1.5 0 0 0 0-2.121094l-4.7402343-4.740234a1.5 1.5 0 0 0 -1.0605468-.439453z" />
		</g>
		<g>
			<path d="m20.839566 15.276897-1.958131-7.3078461" />
			<path d="m18.494141 6.5195312a1.5 1.5 0 0 0 -1.0625 1.8378907l1.958984 7.3085941a1.5 1.5 0 0 0 1.837891 1.060546 1.5 1.5 0 0 0 1.060546-1.83789l-1.958984-7.3085939a1.5 1.5 0 0 0 -1.835937-1.0605469z" />
		</g>
		<g>
			<path d="m35.160434 15.276897 1.958131-7.3078455" />
			<path d="m37.505859 6.5195312a1.5 1.5 0 0 0 -1.835937 1.0605469l-1.958985 7.3085939a1.5 1.5 0 0 0 1.060547 1.83789 1.5 1.5 0 0 0 1.837891-1.060546l1.958984-7.3085941a1.5 1.5 0 0 0 -1.0625-1.8378907z" />
		</g>
		<g>
			<path d="m45.339162 24.66084 4.741662-4.741662" />
			<path d="m50.080078 18.419922a1.5 1.5 0 0 0 -1.060547.439453l-4.740234 4.740234a1.5 1.5 0 0 0 0 2.121094 1.5 1.5 0 0 0 2.121094 0l4.740234-4.740234a1.5 1.5 0 0 0 0-2.121094 1.5 1.5 0 0 0 -1.060547-.439453z" />
		</g>
	</g>
</svg>
