<svg
  viewBox="0 0 48 48"
	xmlns="http://www.w3.org/2000/svg"
>
	<path d="m24 7.45803c-9.138106 0-16.541973 7.40386-16.541973 16.54197s7.403867 16.54197 16.541973 16.54197 16.541973-7.40386 16.541973-16.54197-7.403867-16.54197-16.541973-16.54197zm0 6.40334c3.241693 0 5.869732 2.62804 5.869732 5.86973 0 3.2417-2.628039 5.86974-5.869732 5.86974s-5.869732-2.62804-5.869732-5.86974c0-3.24169 2.628039-5.86973 5.869732-5.86973zm0 22.94532c-3.915378 0-7.423878-1.77426-9.771771-4.54904 1.253989-2.36124 3.708604-3.98875 6.570099-3.98875.160083 0 .320167.0267.47358.0734.86712.28014 1.77426.46024 2.728092.46024s1.867642-.1801 2.728092-.46024c.153413-.0467.313497-.0734.47358-.0734 2.861495 0 5.31611 1.62751 6.570099 3.98875-2.347893 2.77478-5.856393 4.54904-9.771771 4.54904z" />
</svg>
