<svg
  title="Bateria principal"
  viewBox="0 0 48 48"
  xmlns="http://www.w3.org/2000/svg"
>
	<path d="m4.8 7.2h4.8v-2.4l4.720141.0267439.079859 2.3732561 19.2.1631787v-2.4000002h4.8v2.4h4.8v35.9999995l-38.4-.163178zm-4.8-1.2v38.4c0 1.98825 1.6117659 3.592048 3.6 3.6l40.8.163178c1.988234.008 3.6-1.61175 3.6-3.6v-38.3999995c0-1.98825-1.61175-3.6-3.6-3.6h-1.2v-.6c0-.99412501-.805891-1.7953386-1.8-1.80000001l-10.8.00000001c-1.403286.12441481-1.897098 1.0616941-1.8 2.4l-9.6-.1631787c.107687-1.3000004-.391959-2.30971399-1.8-2.4l-10.8.0000002c-.99413.00000002-1.8.805875-1.8 1.8v.6h-1.2c-1.98825 0-3.6 1.61175-3.6 3.6zm7.4 10.8v23.918411l33.2.163178v-23.918411z" />
</svg>
